# xmcd
#
# Track frame offsets:
#	150
#	10295
#	18835
#	28643
#	39043
#	52443
#	57343
#	64918
#	75235
#	85750
#	91135
#	101655
#	112983
#	126228
#	136283
#	143868
#	159043
#	168905
#	177798
#	189880
#	199380
#	207468
#	215005
#	222405
#	230480
#	237663
#	245740
#	251768
#	258605
#	268705
#
# Disc length: 3790 seconds
#
# Revision: 0
# Processed by: cddbd v1.5.2PL0 Copyright (c) Steve Scherf et al.
# Submitted via: EZCDAudioConverter 5.5.0.1
#
DISCID=af0ecc1e
DTITLE=Los Hermanos Zabaleta - Los Red Juniors en Vivo desde el Casino de Viña
DTITLE=del Mar
DYEAR=2005
DGENRE=Balada
TTITLE0=Piensa
TTITLE1=Al pasar esa edad
TTITLE2=ESO ERES
TTITLE3=No sabrás mi dolor
TTITLE4=Escríbeme
TTITLE5=QUE DARIA YO
TTITLE6=Amantes para siempre
TTITLE7=El molino dejó de girar
TTITLE8=SOLO HE QUEDADO
TTITLE9=No soy para tí
TTITLE10=A TU RECUERDO
TTITLE11=Vivencias
TTITLE12=Noelia
TTITLE13=Quién tiene un duro de amor
TTITLE14=Sólo hay dos maneras
TTITLE15=Rosas escarlatas
TTITLE16=Au revoir
TTITLE17=je reviens te chercher
TTITLE18=Et maintenant
TTITLE19=DESPIERTA SUSANITA
TTITLE20=Estremecido
TTITLE21=No me abandones
TTITLE22=UNA MUJER ENAMORADA
TTITLE23=Recuerda cuando
TTITLE24=Al final
TTITLE25=TODO ESTA PERMITIDO
TTITLE26=Lindos ojitos azules
TTITLE27=Adiós, adiós amor
TTITLE28=Sobre mi cabeza
TTITLE29=El amor es algo esplendoroso
EXTD=
EXTT0=
EXTT1=
EXTT2=
EXTT3=
EXTT4=
EXTT5=
EXTT6=
EXTT7=
EXTT8=
EXTT9=
EXTT10=
EXTT11=
EXTT12=
EXTT13=
EXTT14=
EXTT15=
EXTT16=
EXTT17=
EXTT18=
EXTT19=
EXTT20=
EXTT21=
EXTT22=
EXTT23=
EXTT24=
EXTT25=
EXTT26=
EXTT27=
EXTT28=
EXTT29=
PLAYORDER=
